<mxfile host="app.diagrams.net" modified="2023-10-14T02:19:50.265Z" agent="Mozilla/5.0 (Windows NT 10.0; Win64; x64) AppleWebKit/537.36 (KHTML, like Gecko) Chrome/116.0.0.0 Safari/537.36 OPR/102.0.0.0 (Edition std-1)" etag="PlI7P6iLETtvf17rmQH0" version="22.0.4" type="device">
  <diagram name="PÃ¡gina-1" id="7fUBuIqXUCK0mDTPv4Rs">
    <mxGraphModel dx="1393" dy="797" grid="1" gridSize="10" guides="1" tooltips="1" connect="1" arrows="1" fold="1" page="1" pageScale="1" pageWidth="827" pageHeight="1169" math="0" shadow="0">
      <root>
        <mxCell id="0" />
        <mxCell id="1" parent="0" />
        <mxCell id="TJVh1MvSgtVr1ieqjyae-5" style="edgeStyle=orthogonalEdgeStyle;rounded=0;orthogonalLoop=1;jettySize=auto;html=1;exitX=1;exitY=0.5;exitDx=0;exitDy=0;" edge="1" parent="1" source="TJVh1MvSgtVr1ieqjyae-1">
          <mxGeometry relative="1" as="geometry">
            <mxPoint x="520" y="180" as="targetPoint" />
          </mxGeometry>
        </mxCell>
        <mxCell id="TJVh1MvSgtVr1ieqjyae-1" value="" style="rounded=0;whiteSpace=wrap;html=1;fillColor=#b1ddf0;strokeColor=#10739e;" vertex="1" parent="1">
          <mxGeometry x="339" y="40" width="191" height="260" as="geometry" />
        </mxCell>
        <mxCell id="TJVh1MvSgtVr1ieqjyae-2" value="Iphone" style="text;html=1;strokeColor=#001DBC;fillColor=#0050ef;align=center;verticalAlign=middle;whiteSpace=wrap;rounded=0;fontColor=#ffffff;" vertex="1" parent="1">
          <mxGeometry x="340" y="40" width="190" height="30" as="geometry" />
        </mxCell>
        <mxCell id="TJVh1MvSgtVr1ieqjyae-9" value="&lt;font style=&quot;font-size: 17px;&quot;&gt;+ tocarMusica()&lt;br&gt;+ pausarMusica()&lt;br&gt;+&amp;nbsp;selecionarMusica()&lt;br&gt;+&amp;nbsp;abrirPagina()&lt;br&gt;+&amp;nbsp;atualizarPagina()&lt;br&gt;+&amp;nbsp;abrirNovaPagina()&lt;br&gt;+&amp;nbsp;fazerLigacao()&lt;br&gt;+&amp;nbsp;iniciarCorreioDeVoz()&lt;br&gt;+&amp;nbsp;atenderLigacao()&lt;/font&gt;" style="text;html=1;strokeColor=none;fillColor=none;align=left;verticalAlign=middle;whiteSpace=wrap;rounded=0;fontFamily=Times New Roman;fontSize=14;" vertex="1" parent="1">
          <mxGeometry x="340" y="70" width="190" height="230" as="geometry" />
        </mxCell>
        <mxCell id="TJVh1MvSgtVr1ieqjyae-11" value="" style="rounded=0;whiteSpace=wrap;html=1;fillColor=#dae8fc;gradientColor=#7ea6e0;strokeColor=#6c8ebf;" vertex="1" parent="1">
          <mxGeometry x="70" y="490" width="170" height="100" as="geometry" />
        </mxCell>
        <mxCell id="TJVh1MvSgtVr1ieqjyae-25" style="edgeStyle=orthogonalEdgeStyle;rounded=0;orthogonalLoop=1;jettySize=auto;html=1;exitX=0.5;exitY=0;exitDx=0;exitDy=0;entryX=0.594;entryY=-0.1;entryDx=0;entryDy=0;entryPerimeter=0;" edge="1" parent="1" source="TJVh1MvSgtVr1ieqjyae-12" target="TJVh1MvSgtVr1ieqjyae-17">
          <mxGeometry relative="1" as="geometry">
            <mxPoint x="720" y="410" as="targetPoint" />
            <Array as="points">
              <mxPoint x="155" y="451" />
              <mxPoint x="721" y="451" />
            </Array>
          </mxGeometry>
        </mxCell>
        <mxCell id="TJVh1MvSgtVr1ieqjyae-12" value="INTERFACE&lt;br&gt;ReprodutorMusica" style="text;html=1;strokeColor=#10739e;fillColor=#b1ddf0;align=center;verticalAlign=middle;whiteSpace=wrap;rounded=0;" vertex="1" parent="1">
          <mxGeometry x="70" y="490" width="170" height="30" as="geometry" />
        </mxCell>
        <mxCell id="TJVh1MvSgtVr1ieqjyae-14" value="" style="rounded=0;whiteSpace=wrap;html=1;fillColor=#dae8fc;gradientColor=#7ea6e0;strokeColor=#6c8ebf;" vertex="1" parent="1">
          <mxGeometry x="349.5" y="490" width="170" height="100" as="geometry" />
        </mxCell>
        <mxCell id="TJVh1MvSgtVr1ieqjyae-23" style="edgeStyle=orthogonalEdgeStyle;rounded=0;orthogonalLoop=1;jettySize=auto;html=1;exitX=0.5;exitY=0;exitDx=0;exitDy=0;entryX=0.5;entryY=1;entryDx=0;entryDy=0;" edge="1" parent="1" source="TJVh1MvSgtVr1ieqjyae-15" target="TJVh1MvSgtVr1ieqjyae-9">
          <mxGeometry relative="1" as="geometry" />
        </mxCell>
        <mxCell id="TJVh1MvSgtVr1ieqjyae-15" value="INTERFACE&lt;br&gt;Internet" style="text;html=1;strokeColor=#10739e;fillColor=#b1ddf0;align=center;verticalAlign=middle;whiteSpace=wrap;rounded=0;" vertex="1" parent="1">
          <mxGeometry x="350" y="490" width="170" height="30" as="geometry" />
        </mxCell>
        <mxCell id="TJVh1MvSgtVr1ieqjyae-16" value="" style="rounded=0;whiteSpace=wrap;html=1;fillColor=#dae8fc;gradientColor=#7ea6e0;strokeColor=#6c8ebf;" vertex="1" parent="1">
          <mxGeometry x="620" y="490" width="170" height="100" as="geometry" />
        </mxCell>
        <mxCell id="TJVh1MvSgtVr1ieqjyae-17" value="INTERFACE&lt;br&gt;Aparelho" style="text;html=1;strokeColor=#10739e;fillColor=#b1ddf0;align=center;verticalAlign=middle;whiteSpace=wrap;rounded=0;" vertex="1" parent="1">
          <mxGeometry x="620" y="490" width="170" height="30" as="geometry" />
        </mxCell>
        <mxCell id="TJVh1MvSgtVr1ieqjyae-18" value="&lt;font style=&quot;font-size: 17px;&quot;&gt;+ tocarMusica()&lt;br style=&quot;border-color: var(--border-color); font-family: &amp;quot;Times New Roman&amp;quot;;&quot;&gt;&lt;span style=&quot;font-family: &amp;quot;Times New Roman&amp;quot;;&quot;&gt;+ pausarMusica()&lt;/span&gt;&lt;br style=&quot;border-color: var(--border-color); font-family: &amp;quot;Times New Roman&amp;quot;;&quot;&gt;&lt;/font&gt;&lt;div style=&quot;font-size: 17px;&quot;&gt;&lt;span style=&quot;font-family: &amp;quot;Times New Roman&amp;quot;; background-color: initial;&quot;&gt;&lt;font style=&quot;font-size: 17px;&quot;&gt;+&amp;nbsp;selecionarMusica()&lt;/font&gt;&lt;/span&gt;&lt;/div&gt;" style="text;html=1;strokeColor=none;fillColor=none;align=left;verticalAlign=middle;whiteSpace=wrap;rounded=0;" vertex="1" parent="1">
          <mxGeometry x="70" y="520" width="170" height="70" as="geometry" />
        </mxCell>
        <mxCell id="TJVh1MvSgtVr1ieqjyae-19" value="&lt;font style=&quot;font-size: 17px;&quot;&gt;+&amp;nbsp;abrirPagina()&lt;br style=&quot;border-color: var(--border-color); font-family: &amp;quot;Times New Roman&amp;quot;;&quot;&gt;&lt;span style=&quot;font-family: &amp;quot;Times New Roman&amp;quot;;&quot;&gt;+&amp;nbsp;atualizarPagina()&lt;/span&gt;&lt;br style=&quot;border-color: var(--border-color); font-family: &amp;quot;Times New Roman&amp;quot;;&quot;&gt;&lt;span style=&quot;font-family: &amp;quot;Times New Roman&amp;quot;;&quot;&gt;+&amp;nbsp;abrirNovaPagina()&lt;/span&gt;&lt;/font&gt;" style="text;html=1;strokeColor=none;fillColor=none;align=left;verticalAlign=middle;whiteSpace=wrap;rounded=0;" vertex="1" parent="1">
          <mxGeometry x="349.5" y="520" width="170" height="70" as="geometry" />
        </mxCell>
        <mxCell id="TJVh1MvSgtVr1ieqjyae-20" value="&lt;font style=&quot;font-size: 17px;&quot; face=&quot;Times New Roman&quot;&gt;+&amp;nbsp;fazerLigacao()&lt;br style=&quot;border-color: var(--border-color);&quot;&gt;+&amp;nbsp;iniciarCorreioDeVoz()&lt;br style=&quot;border-color: var(--border-color);&quot;&gt;&lt;/font&gt;&lt;div style=&quot;font-size: 17px;&quot;&gt;&lt;span style=&quot;background-color: initial;&quot;&gt;&lt;font style=&quot;font-size: 17px;&quot; face=&quot;Times New Roman&quot;&gt;+&amp;nbsp;atenderLigacao()&lt;/font&gt;&lt;/span&gt;&lt;/div&gt;" style="text;html=1;strokeColor=none;fillColor=none;align=left;verticalAlign=middle;whiteSpace=wrap;rounded=0;" vertex="1" parent="1">
          <mxGeometry x="620" y="520" width="170" height="70" as="geometry" />
        </mxCell>
      </root>
    </mxGraphModel>
  </diagram>
</mxfile>
